<svg width="21" height="20" viewBox="0 0 21 20" fill="none" xmlns="http://www.w3.org/2000/svg">
<circle cx="10.5947" cy="10" r="10" fill="#01D2A1"/>
<path d="M15.6377 6.23787C15.5629 6.1625 15.474 6.10267 15.376 6.06185C15.278 6.02102 15.1729 6 15.0667 6C14.9605 6 14.8554 6.02102 14.7574 6.06185C14.6594 6.10267 14.5705 6.1625 14.4957 6.23787L8.50459 12.2371L5.9875 9.71193C5.90988 9.63695 5.81825 9.57799 5.71785 9.53842C5.61744 9.49886 5.51022 9.47945 5.40232 9.48132C5.29441 9.48318 5.18793 9.50629 5.08896 9.5493C4.98998 9.59232 4.90044 9.65442 4.82546 9.73204C4.75048 9.80966 4.69153 9.90129 4.65196 10.0017C4.61239 10.1021 4.59298 10.2093 4.59485 10.3172C4.59672 10.4251 4.61982 10.5316 4.66284 10.6306C4.70586 10.7296 4.76795 10.8191 4.84557 10.8941L7.93362 13.9821C8.00838 14.0575 8.09732 14.1173 8.19532 14.1582C8.29331 14.199 8.39842 14.22 8.50459 14.22C8.61075 14.22 8.71586 14.199 8.81385 14.1582C8.91185 14.1173 9.00079 14.0575 9.07555 13.9821L15.6377 7.42002C15.7193 7.34471 15.7844 7.25332 15.829 7.15159C15.8735 7.04986 15.8966 6.94001 15.8966 6.82895C15.8966 6.71789 15.8735 6.60803 15.829 6.50631C15.7844 6.40458 15.7193 6.31318 15.6377 6.23787Z" fill="white"/>
</svg>
