<svg width="160" height="47" viewBox="0 0 160 47" fill="none" xmlns="http://www.w3.org/2000/svg">
<g clip-path="url(#clip0_34_244)">
<path d="M154.074 46.9836H5.92593C2.60741 46.9836 0 44.3995 0 41.1106V5.87294C0 2.5841 2.60741 0 5.92593 0H154.074C157.393 0 160 2.5841 160 5.87294V41.1106C160 44.3995 157.393 46.9836 154.074 46.9836Z" fill="black"/>
<path d="M56.9539 12.7744C56.8821 13.6934 56.5116 14.4623 55.8423 15.0809C55.1788 15.6936 54.399 16 53.5028 16C52.5635 16 51.7478 15.6609 51.0556 14.9828C50.3519 14.2928 50 13.4644 50 12.4978C50 11.5222 50.349 10.6924 51.047 10.0083C51.7306 9.3361 52.5463 9 53.4942 9C54.5713 9 55.4603 9.41343 56.1611 10.2403C56.3507 10.4604 56.4915 10.6864 56.5834 10.9184H55.8251C55.601 10.5169 55.2693 10.1957 54.8298 9.95475C54.4076 9.72573 53.9652 9.61122 53.5028 9.61122C52.7244 9.61122 52.0566 9.89229 51.4994 10.4544C50.9364 11.0195 50.6549 11.7036 50.6549 12.5067C50.6549 13.3157 50.9393 13.9998 51.508 14.559C52.0709 15.1092 52.7445 15.3843 53.5287 15.3843C54.1175 15.3843 54.6647 15.1984 55.1702 14.8266C55.6929 14.443 56.0261 13.9626 56.1698 13.3856H52.5248V12.7744H56.9539Z" fill="white"/>
<path d="M57.9621 15.8795V9.116H61.5338V9.73168H58.617V12.1587H61.439V12.7744H58.617V15.2683H61.5338V15.8795H57.9621Z" fill="white"/>
<path d="M64.2826 9.73168V15.8795H63.6277V9.73168H62.1284V9.116H65.7734V9.73168H64.2826Z" fill="white"/>
<path d="M68.9487 15.8795V9.116H69.6036V15.8795H68.9487Z" fill="white"/>
<path d="M72.4774 9.73168V15.8795H71.8225V9.73168H70.3231V9.116H73.9681V9.73168H72.4774Z" fill="white"/>
<path d="M83.7656 12.4978C83.7656 13.4674 83.4209 14.2957 82.7316 14.9828C82.0537 15.6609 81.2452 16 80.3059 16C79.381 16 78.5768 15.6639 77.8931 14.9917C77.2009 14.3076 76.8548 13.4882 76.8548 12.5335C76.8548 11.5519 77.1923 10.7162 77.8673 10.0261C78.5394 9.34204 79.3523 9 80.3059 9C81.248 9 82.058 9.33907 82.7359 10.0172C83.4224 10.7013 83.7656 11.5281 83.7656 12.4978ZM83.1107 12.5067C83.1107 11.7126 82.835 11.0314 82.2835 10.4634C81.732 9.89526 81.0728 9.61122 80.3059 9.61122C79.5304 9.61122 78.8697 9.89824 78.324 10.4723C77.7811 11.0463 77.5097 11.7334 77.5097 12.5335C77.5097 13.3127 77.7883 13.9834 78.3455 14.5456C78.897 15.1047 79.5505 15.3843 80.3059 15.3843C81.0699 15.3843 81.7277 15.1033 82.2792 14.5411C82.8335 13.979 83.1107 13.3008 83.1107 12.5067Z" fill="white"/>
<path d="M89.3494 15.8795L85.4761 9.93244H85.4589V15.8795H84.804V9.116H85.6872L89.3322 14.7285H89.3494V9.116H90V15.8795H89.3494Z" fill="white"/>
<path d="M81.0049 25.6143C78.1604 25.6143 75.9086 27.7286 75.9086 30.6651C75.9086 33.4841 78.1604 35.7158 81.0049 35.7158C83.8493 35.7158 86.1012 33.6015 86.1012 30.6651C86.1012 27.6111 83.8493 25.6143 81.0049 25.6143ZM81.0049 33.6015C79.4641 33.6015 78.1604 32.3095 78.1604 30.5476C78.1604 28.7857 79.4641 27.4937 81.0049 27.4937C82.5456 27.4937 83.8493 28.6683 83.8493 30.5476C83.8493 32.3095 82.5456 33.6015 81.0049 33.6015ZM69.9826 25.6143C67.1382 25.6143 64.8864 27.7286 64.8864 30.6651C64.8864 33.4841 67.1382 35.7158 69.9826 35.7158C72.8271 35.7158 75.0789 33.6015 75.0789 30.6651C75.0789 27.6111 72.8271 25.6143 69.9826 25.6143ZM69.9826 33.6015C68.4419 33.6015 67.1382 32.3095 67.1382 30.5476C67.1382 28.7857 68.4419 27.4937 69.9826 27.4937C71.5234 27.4937 72.8271 28.6683 72.8271 30.5476C72.8271 32.3095 71.5234 33.6015 69.9826 33.6015ZM56.8271 27.1413V29.2555H61.9234C61.8049 30.4301 61.3308 31.3698 60.7382 31.9571C60.0271 32.6619 58.8419 33.4841 56.8271 33.4841C53.6271 33.4841 51.2567 31.0174 51.2567 27.846C51.2567 24.6746 53.7456 22.208 56.8271 22.208C58.4864 22.208 59.7901 22.9128 60.7382 23.735L62.2789 22.208C60.9752 21.0334 59.316 20.0938 56.9456 20.0938C52.679 20.0938 49.0049 23.6175 49.0049 27.846C49.0049 32.0746 52.679 35.5983 56.9456 35.5983C59.316 35.5983 60.9752 34.8936 62.3975 33.3666C63.8197 31.9571 64.2938 29.9603 64.2938 28.4333C64.2938 27.9635 64.2938 27.4937 64.1752 27.1413H56.8271ZM110.634 28.7857C110.16 27.6111 108.975 25.6143 106.368 25.6143C103.76 25.6143 101.627 27.6111 101.627 30.6651C101.627 33.4841 103.76 35.7158 106.605 35.7158C108.857 35.7158 110.279 34.3063 110.753 33.4841L109.094 32.3095C108.501 33.1317 107.79 33.719 106.605 33.719C105.42 33.719 104.709 33.2492 104.116 32.192L110.871 29.373L110.634 28.7857ZM103.76 30.4301C103.76 28.5508 105.301 27.4937 106.368 27.4937C107.197 27.4937 108.027 27.9635 108.264 28.5508L103.76 30.4301ZM98.19 35.246H100.442V20.5636H98.19V35.246ZM94.6345 26.6715C94.0419 26.0842 93.0937 25.4969 91.9086 25.4969C89.4197 25.4969 87.0493 27.7286 87.0493 30.5476C87.0493 33.3666 89.3011 35.4809 91.9086 35.4809C93.0937 35.4809 94.0419 34.8936 94.516 34.3063H94.6345V35.011C94.6345 36.8904 93.5678 37.9475 91.9086 37.9475C90.6049 37.9475 89.6567 37.0078 89.4197 36.1856L87.5234 37.0078C88.116 38.2999 89.5382 39.9443 92.0271 39.9443C94.6345 39.9443 96.7678 38.4173 96.7678 34.7761V25.8492H94.6345V26.6715ZM92.0271 33.6015C90.4863 33.6015 89.1826 32.3095 89.1826 30.5476C89.1826 28.7857 90.4863 27.4937 92.0271 27.4937C93.5678 27.4937 94.753 28.7857 94.753 30.5476C94.753 32.3095 93.5678 33.6015 92.0271 33.6015ZM120.946 20.5636H115.612V35.246H117.864V29.7254H120.946C123.434 29.7254 125.805 27.9635 125.805 25.1445C125.805 22.3255 123.434 20.5636 120.946 20.5636ZM121.064 27.6111H117.864V22.5604H121.064C122.723 22.5604 123.671 23.9699 123.671 25.027C123.553 26.3191 122.605 27.6111 121.064 27.6111ZM134.694 25.4969C133.034 25.4969 131.375 26.2016 130.783 27.7286L132.797 28.5508C133.271 27.7286 133.983 27.4937 134.812 27.4937C135.997 27.4937 137.064 28.1984 137.183 29.373V29.4905C136.827 29.2555 135.879 28.9032 134.931 28.9032C132.797 28.9032 130.664 30.0778 130.664 32.192C130.664 34.1888 132.442 35.4809 134.338 35.4809C135.879 35.4809 136.59 34.7761 137.183 34.0714H137.301V35.246H139.434V29.6079C139.197 27.0238 137.183 25.4969 134.694 25.4969ZM134.457 33.6015C133.746 33.6015 132.679 33.2492 132.679 32.3095C132.679 31.1349 133.983 30.7825 135.049 30.7825C135.997 30.7825 136.471 31.0174 137.064 31.2523C136.827 32.6619 135.642 33.6015 134.457 33.6015ZM146.901 25.8492L144.412 32.192H144.294L141.686 25.8492H139.316L143.227 34.7761L140.975 39.7094H143.227L149.271 25.8492H146.901ZM126.99 35.246H129.242V20.5636H126.99V35.246Z" fill="white"/>
<path d="M12.3259 8.81763C11.9703 9.17 11.8518 9.7573 11.8518 10.4621V36.4205C11.8518 37.1252 12.0888 37.7125 12.4444 38.0649L12.5629 38.1823L27.2592 23.6174V23.3825L12.3259 8.81763Z" fill="url(#paint0_linear_34_244)"/>
<path d="M31.9999 28.5507L27.1406 23.7348V23.3825L31.9999 18.5667L32.1184 18.6841L37.9258 21.973C39.5851 22.9126 39.5851 24.4396 37.9258 25.3793L31.9999 28.5507Z" fill="url(#paint1_linear_34_244)"/>
<path d="M32.1185 28.4333L27.1408 23.5L12.3259 38.1824C12.9185 38.7697 13.7482 38.7697 14.8148 38.2998L32.1185 28.4333Z" fill="url(#paint2_linear_34_244)"/>
<path d="M32.1185 18.5668L14.8148 8.81776C13.7482 8.23046 12.9185 8.34792 12.3259 8.93522L27.1408 23.5001L32.1185 18.5668Z" fill="url(#paint3_linear_34_244)"/>
<path opacity="0.2" d="M32 28.3159L14.8148 37.9475C13.8667 38.5348 13.037 38.4174 12.4444 37.9475L12.3259 38.065L12.4444 38.1824C13.037 38.6523 13.8667 38.7697 14.8148 38.1824L32 28.3159Z" fill="black"/>
<path opacity="0.12" d="M12.3259 37.9475C11.9703 37.5951 11.8518 37.0078 11.8518 36.303V36.4205C11.8518 37.1252 12.0888 37.7125 12.4444 38.0649V37.9475H12.3259ZM37.9259 25.027L32 28.3158L32.1185 28.4333L37.9259 25.1444C38.7555 24.6746 39.1111 24.0873 39.1111 23.5C39.1111 24.0873 38.637 24.5571 37.9259 25.027Z" fill="black"/>
<path opacity="0.25" d="M19.283 12.266L42.3942 25.3039C43.1053 25.7738 43.5793 26.2436 43.5793 26.8309C43.5793 26.2436 43.2238 25.6563 42.3942 25.1865L19.283 12.1485C17.6238 11.2089 16.3201 11.9136 16.3201 13.793V13.9104C16.3201 12.1485 17.6238 11.3263 19.283 12.266Z" fill="white"/>
</g>
<defs>
<linearGradient id="paint0_linear_34_244" x1="25.837" y1="10.2389" x2="6.12465" y2="30.1279" gradientUnits="userSpaceOnUse">
<stop stop-color="#00A0FF"/>
<stop offset="0.007" stop-color="#00A1FF"/>
<stop offset="0.26" stop-color="#00BEFF"/>
<stop offset="0.512" stop-color="#00D2FF"/>
<stop offset="0.76" stop-color="#00DFFF"/>
<stop offset="1" stop-color="#00E3FF"/>
</linearGradient>
<linearGradient id="paint1_linear_34_244" x1="40.0995" y1="23.5011" x2="11.4215" y2="23.5011" gradientUnits="userSpaceOnUse">
<stop stop-color="#FFE000"/>
<stop offset="0.409" stop-color="#FFBD00"/>
<stop offset="0.775" stop-color="#FFA500"/>
<stop offset="1" stop-color="#FF9C00"/>
</linearGradient>
<linearGradient id="paint2_linear_34_244" x1="29.4246" y1="26.1969" x2="2.69436" y2="53.1682" gradientUnits="userSpaceOnUse">
<stop stop-color="#FF3A44"/>
<stop offset="1" stop-color="#C31162"/>
</linearGradient>
<linearGradient id="paint3_linear_34_244" x1="8.6483" y1="0.215066" x2="20.5852" y2="12.2596" gradientUnits="userSpaceOnUse">
<stop stop-color="#32A071"/>
<stop offset="0.069" stop-color="#2DA771"/>
<stop offset="0.476" stop-color="#15CF74"/>
<stop offset="0.801" stop-color="#06E775"/>
<stop offset="1" stop-color="#00F076"/>
</linearGradient>
<clipPath id="clip0_34_244">
<rect width="160" height="47" fill="white"/>
</clipPath>
</defs>
</svg>
