<svg width="164" height="48" viewBox="0 0 164 48" fill="none" xmlns="http://www.w3.org/2000/svg">
<g clip-path="url(#clip0_30_2473)">
<path d="M163.328 43.2846C163.328 45.8899 161.238 48 158.653 48H5.65342C3.06947 48 0.972168 45.8899 0.972168 43.2846V5.68144C0.972168 3.07755 3.06957 0.959961 5.65342 0.959961H158.652C161.238 0.959961 163.327 3.07755 163.327 5.68144L163.328 43.2846Z" fill="black"/>
<path d="M36.6197 23.7469C36.5845 19.8786 39.8273 17.9966 39.9756 17.909C38.139 15.2649 35.2925 14.9036 34.2922 14.8748C31.9014 14.6263 29.5822 16.2875 28.3643 16.2875C27.1221 16.2875 25.2466 14.8988 23.2253 14.9396C20.6242 14.9792 18.1909 16.4663 16.8563 18.7755C14.1021 23.484 16.1561 30.4034 18.795 34.2093C20.1149 36.0744 21.6575 38.1544 23.6763 38.0812C25.6514 38.002 26.3892 36.839 28.7727 36.839C31.1343 36.839 31.8272 38.0812 33.8861 38.0344C36.006 38.002 37.3405 36.1621 38.6144 34.2813C40.1398 32.1461 40.7523 30.0409 40.7767 29.9329C40.728 29.9161 36.661 28.3822 36.6197 23.7469ZM32.7302 12.3711C33.7924 11.0593 34.5194 9.27452 34.3176 7.46338C32.7799 7.53059 30.8572 8.51358 29.7498 9.79662C28.7701 10.9272 27.895 12.7804 28.121 14.5231C29.8483 14.6504 31.6217 13.6626 32.7302 12.3711Z" fill="white"/>
<path d="M65.2283 37.8143H62.468L60.9559 33.1227H55.7002L54.2598 37.8143H51.5725L56.7808 21.8417H59.9969L65.2283 37.8143ZM60.5003 31.1543L59.1328 26.9835C58.9882 26.5574 58.7159 25.554 58.3172 23.9745H58.2686C58.1082 24.6538 57.8517 25.6572 57.5005 26.9835L56.1562 31.1543H60.5003ZM78.5962 31.914C78.5962 33.8728 78.0577 35.4211 76.9795 36.5578C76.0145 37.5695 74.8149 38.0749 73.3841 38.0749C71.8393 38.0749 70.7283 37.5311 70.0538 36.4414V42.4845H67.4624V30.0825C67.4624 28.8521 67.4297 27.5908 67.3664 26.297H69.6455L69.7901 28.1225H69.8386C70.7028 26.747 72.0143 26.0592 73.7743 26.0592C75.1502 26.0592 76.2988 26.5957 77.2177 27.6699C78.1354 28.7466 78.5962 30.1605 78.5962 31.914ZM75.9561 32.0076C75.9561 30.8866 75.7008 29.9625 75.1879 29.2339C74.6276 28.4766 73.8752 28.0974 72.932 28.0974C72.2927 28.0974 71.7117 28.3085 71.1927 28.725C70.6724 29.1451 70.3321 29.6936 70.173 30.3729C70.0928 30.6898 70.0526 30.9478 70.0526 31.152V33.0734C70.0526 33.91 70.3127 34.617 70.833 35.1955C71.3532 35.7717 72.029 36.0608 72.8604 36.0608C73.8365 36.0608 74.5962 35.6876 75.1394 34.947C75.6838 34.2041 75.9561 33.2247 75.9561 32.0076ZM92.0112 31.914C92.0112 33.8728 91.4728 35.4211 90.3947 36.5578C89.4284 37.5695 88.2299 38.0749 86.7981 38.0749C85.2532 38.0749 84.1423 37.5311 83.4677 36.4414V42.4845H80.8763V30.0825C80.8763 28.8521 80.8435 27.5908 80.7803 26.297H83.0593L83.2039 28.1225H83.2526C84.1155 26.747 85.427 26.0592 87.1882 26.0592C88.5629 26.0592 89.7115 26.5957 90.6329 27.6699C91.5495 28.7466 92.0112 30.1605 92.0112 31.914ZM89.37 32.0076C89.37 30.8866 89.1137 29.9625 88.6006 29.2339C88.0403 28.4766 87.2904 28.0974 86.3471 28.0974C85.7078 28.0974 85.1268 28.3085 84.6054 28.725C84.0852 29.1451 83.7461 29.6936 83.5868 30.3729C83.5078 30.6898 83.4653 30.9478 83.4653 31.152V33.0734C83.4653 33.91 83.7266 34.617 84.2444 35.1955C84.7646 35.7705 85.4404 36.0608 86.2742 36.0608C87.2514 36.0608 88.011 35.6876 88.5532 34.947C89.0978 34.2041 89.37 33.2247 89.37 32.0076ZM107.01 33.3339C107.01 34.6938 106.529 35.7992 105.572 36.6525C104.52 37.5839 103.05 38.0508 101.166 38.0508C99.4256 38.0508 98.0303 37.7195 96.9777 37.0558L97.5769 34.923C98.7134 35.5879 99.9616 35.9192 101.321 35.9192C102.298 35.9192 103.057 35.7007 103.6 35.2675C104.143 34.833 104.418 34.2521 104.418 33.5271C104.418 32.8779 104.19 32.3341 103.744 31.8913C103.296 31.4496 102.554 31.038 101.513 30.6599C98.6805 29.6169 97.2633 28.0914 97.2633 26.0846C97.2633 24.774 97.7641 23.701 98.7633 22.862C99.7624 22.0242 101.087 21.6055 102.735 21.6055C104.207 21.6055 105.434 21.8587 106.407 22.364L105.757 24.4499C104.841 23.9602 103.806 23.7154 102.649 23.7154C101.735 23.7154 101.018 23.9374 100.505 24.3791C100.073 24.774 99.8547 25.2554 99.8547 25.8266C99.8547 26.4568 100.104 26.9801 100.6 27.3906C101.03 27.7685 101.815 28.1803 102.95 28.622C104.343 29.1765 105.367 29.8222 106.022 30.564C106.682 31.3055 107.01 32.2309 107.01 33.3339ZM115.6 28.2173H112.744V33.8092C112.744 35.2315 113.247 35.9408 114.256 35.9408C114.719 35.9408 115.103 35.9023 115.407 35.822L115.478 37.7651C114.968 37.9537 114.296 38.0484 113.463 38.0484C112.44 38.0484 111.64 37.7399 111.063 37.123C110.488 36.5061 110.198 35.4727 110.198 34.018V28.2125H108.497V26.2922H110.198V24.1834L112.744 23.4248V26.2922H115.6V28.2173ZM128.462 31.9608C128.462 33.7311 127.949 35.1845 126.926 36.3213C125.855 37.4915 124.43 38.0748 122.654 38.0748C120.941 38.0748 119.578 37.5143 118.562 36.3945C117.546 35.2722 117.038 33.8584 117.038 32.1529C117.038 30.368 117.563 28.9063 118.609 27.7696C119.658 26.6318 121.071 26.063 122.847 26.063C124.558 26.063 125.933 26.6246 126.973 27.7456C127.967 28.833 128.462 30.2373 128.462 31.9608ZM125.776 32.0196C125.776 30.9645 125.545 30.0596 125.082 29.3022C124.538 28.3877 123.761 27.9305 122.753 27.9305C121.715 27.9305 120.919 28.3877 120.377 29.3022C119.912 30.0596 119.681 30.9801 119.681 32.0676C119.681 33.1239 119.912 34.0311 120.377 34.7862C120.937 35.7007 121.719 36.158 122.731 36.158C123.722 36.158 124.498 35.6911 125.06 34.7634C125.536 33.988 125.776 33.077 125.776 32.0196ZM136.889 28.5474C136.633 28.5005 136.358 28.4765 136.072 28.4765C135.161 28.4765 134.456 28.815 133.96 29.4967C133.53 30.0968 133.313 30.8553 133.313 31.7711V37.8142H130.722V29.924C130.722 28.5978 130.696 27.388 130.646 26.2982H132.904L132.998 28.5017H133.07C133.345 27.7444 133.775 27.1334 134.366 26.6761C134.943 26.2646 135.567 26.0592 136.239 26.0592C136.478 26.0592 136.695 26.076 136.887 26.1061L136.889 28.5474ZM148.479 31.5107C148.479 31.9692 148.448 32.3556 148.384 32.6714H140.609C140.639 33.8092 141.016 34.6805 141.737 35.2807C142.393 35.8161 143.24 36.0848 144.28 36.0848C145.431 36.0848 146.481 35.9048 147.426 35.5411L147.832 37.3162C146.728 37.7915 145.425 38.028 143.922 38.028C142.113 38.028 140.693 37.5022 139.66 36.4533C138.629 35.4031 138.113 33.9916 138.113 32.2237C138.113 30.4881 138.593 29.0419 139.554 27.8885C140.561 26.657 141.921 26.0412 143.632 26.0412C145.313 26.0412 146.586 26.6569 147.45 27.8885C148.134 28.8642 148.479 30.0741 148.479 31.5107ZM146.007 30.847C146.026 30.0873 145.855 29.4332 145.504 28.8798C145.056 28.1669 144.365 27.8116 143.44 27.8116C142.593 27.8116 141.903 28.1585 141.378 28.8546C140.946 29.4079 140.69 30.0729 140.611 30.8446L146.007 30.847Z" fill="white"/>
<path d="M59.2507 16.1243H57.893L57.1503 13.8186H54.5674L53.8588 16.1243H52.5376L55.0974 8.27358H56.6775L59.2507 16.1243ZM56.9267 12.8512L56.2545 10.8013C56.184 10.5912 56.054 10.1027 55.8534 9.32258H55.8291C55.7464 9.65984 55.6285 10.1495 55.4511 10.8013L54.7911 12.8512H56.9267ZM65.6513 10.464L63.4805 16.1243H62.2418L60.1416 10.464H61.5102L62.4899 13.4574C62.6552 13.9579 62.7962 14.4355 62.9019 14.8892H62.9372C63.0321 14.4824 63.173 14.0047 63.3492 13.4574L64.3167 10.464H65.6513ZM70.2725 16.1243L70.1777 15.4724H70.1424C69.7534 15.9969 69.187 16.2526 68.4676 16.2526C67.4416 16.2526 66.7099 15.5421 66.7099 14.5867C66.7099 13.1896 67.9363 12.4671 70.0597 12.4671V12.3627C70.0597 11.6173 69.6586 11.244 68.8686 11.244C68.302 11.244 67.8062 11.3845 67.3711 11.6641L67.1121 10.8372C67.6433 10.5107 68.3034 10.3475 69.0824 10.3475C70.5798 10.3475 71.3359 11.1276 71.3359 12.6891V14.7739C71.3359 15.3452 71.3602 15.7881 71.4185 16.1254L70.2725 16.1243ZM70.0951 13.3049C68.6791 13.3049 67.9716 13.6434 67.9716 14.4463C67.9716 15.0405 68.3375 15.3309 68.8443 15.3309C69.4933 15.3309 70.0951 14.8424 70.0951 14.1787V13.3049ZM74.173 9.53141C73.7488 9.53141 73.4182 9.20495 73.4182 8.77407C73.4182 8.34319 73.7598 8.02873 74.1973 8.02873C74.6336 8.02873 74.9873 8.34319 74.9753 8.77407C74.9753 9.22896 74.6459 9.53141 74.173 9.53141ZM74.8342 16.1243H73.5604V10.464H74.8342V16.1243ZM78.3712 16.1243H77.0974V7.8667H78.3712V16.1243ZM83.7849 16.1243L83.69 15.4724H83.6549C83.2659 15.9969 82.6995 16.2526 81.9799 16.2526C80.9541 16.2526 80.2224 15.5421 80.2224 14.5867C80.2224 13.1896 81.4487 12.4671 83.5721 12.4671V12.3627C83.5721 11.6173 83.171 11.244 82.3809 11.244C81.8145 11.244 81.3186 11.3845 80.8835 11.6641L80.6235 10.836C81.1546 10.5095 81.8146 10.3463 82.5938 10.3463C84.0912 10.3463 84.8471 11.1264 84.8471 12.6879V14.7727C84.8471 15.344 84.8728 15.7869 84.9287 16.1242H83.7849V16.1243ZM83.6075 13.3049C82.1914 13.3049 81.484 13.6434 81.484 14.4463C81.484 15.0405 81.8498 15.3309 82.3566 15.3309C83.0057 15.3309 83.6075 14.8424 83.6075 14.1787V13.3049ZM90.0082 16.2527C89.1951 16.2527 88.5945 15.9142 88.2056 15.2505H88.18L88.1071 16.1243H87.0217C87.057 15.6706 87.0691 15.1569 87.0691 14.5988V7.8667H88.3441V11.2921H88.3684C88.7464 10.6632 89.3579 10.3488 90.1965 10.3488C91.5773 10.3488 92.5448 11.5142 92.5448 13.2137C92.5448 14.9708 91.4703 16.2527 90.0082 16.2527ZM89.7492 11.3366C89.0163 11.3366 88.3455 11.9655 88.3455 12.8392V13.8294C88.3455 14.6096 88.9482 15.2505 89.7275 15.2505C90.6816 15.2505 91.2492 14.4824 91.2492 13.2593C91.2479 12.1179 90.6572 11.3366 89.7492 11.3366ZM95.7014 16.1243H94.4289V7.8667H95.7014V16.1243ZM102.636 13.5966H98.8119C98.8374 14.6684 99.5544 15.2733 100.617 15.2733C101.183 15.2733 101.702 15.1797 102.162 15.0057L102.36 15.8794C101.818 16.1123 101.181 16.2287 100.438 16.2287C98.644 16.2287 97.5829 15.1101 97.5829 13.3757C97.5829 11.6402 98.6697 10.3356 100.295 10.3356C101.757 10.3356 102.678 11.4074 102.678 13.0265C102.683 13.2473 102.672 13.4454 102.636 13.5966ZM101.468 12.7C101.468 11.8263 101.019 11.2093 100.205 11.2093C99.4729 11.2093 98.8969 11.8383 98.8118 12.7H101.468ZM110.356 16.2527C108.681 16.2527 107.596 15.0177 107.596 13.3409C107.596 11.5934 108.704 10.3476 110.452 10.3476C112.102 10.3476 113.213 11.5238 113.213 13.2485C113.213 15.0177 112.068 16.2527 110.356 16.2527ZM110.405 11.2669C109.485 11.2669 108.895 12.1167 108.895 13.3049C108.895 14.4704 109.497 15.3201 110.393 15.3201C111.289 15.3201 111.889 14.4115 111.889 13.2809C111.89 12.1287 111.301 11.2669 110.405 11.2669ZM120.061 16.1243H118.788V12.874C118.788 11.8731 118.399 11.3714 117.632 11.3714C116.877 11.3714 116.357 12.0123 116.357 12.7576V16.1243H115.085V12.0819C115.085 11.5814 115.071 11.0449 115.037 10.4628H116.158L116.217 11.3366H116.253C116.593 10.7316 117.291 10.3464 118.069 10.3464C119.271 10.3464 120.061 11.2549 120.061 12.7336V16.1243H120.061ZM128.395 11.4074H126.994V14.1559C126.994 14.8556 127.241 15.2049 127.735 15.2049C127.96 15.2049 128.15 15.1809 128.302 15.1461L128.337 16.1015C128.089 16.1952 127.757 16.2419 127.347 16.2419C126.343 16.2419 125.744 15.6946 125.744 14.2615V11.4074H124.908V10.464H125.744V9.427L126.994 9.05372V10.4628H128.395V11.4074ZM135.141 16.1243H133.866V12.8981C133.866 11.8851 133.477 11.3726 132.71 11.3726C132.05 11.3726 131.438 11.8154 131.438 12.712V16.1243H130.162V7.8667H131.438V11.2669H131.462C131.863 10.65 132.442 10.3464 133.184 10.3464C134.398 10.3464 135.141 11.2777 135.141 12.7576V16.1243ZM141.65 13.5966H137.827C137.852 14.6684 138.569 15.2733 139.631 15.2733C140.199 15.2733 140.716 15.1797 141.176 15.0057L141.375 15.8794C140.833 16.1123 140.195 16.2287 139.452 16.2287C137.658 16.2287 136.597 15.1101 136.597 13.3757C136.597 11.6402 137.684 10.3356 139.309 10.3356C140.771 10.3356 141.693 11.4074 141.693 13.0265C141.697 13.2473 141.685 13.4454 141.65 13.5966ZM140.482 12.7C140.482 11.8263 140.034 11.2093 139.22 11.2093C138.487 11.2093 137.911 11.8383 137.827 12.7H140.482Z" fill="white"/>
</g>
<defs>
<clipPath id="clip0_30_2473">
<rect width="164" height="48" fill="white"/>
</clipPath>
</defs>
</svg>
